# xmcd
#
# Track frame offsets:
#	150
#	21147
#	35021
#	55724
#	71339
#	86343
#	98218
#	112960
#	126271
#	139982
#	153876
#	168362
# Disc length: 2516 seconds
# Revision: 1
# Processed by: cddbd v1.5.2PL0 Copyright (c) Steve Scherf et al.
#
# Submitted via: libkcddb 0.31
#
DISCID=9509d20c
DTITLE=Jose A. Alonso - El pais de los liquenes azules
DYEAR=2007
DGENRE=Unknown
TTITLE0=El pais de los liquenes azules
TTITLE1=El tambor de san anton
TTITLE2=Mi ciudad
TTITLE3=Madre tierra
TTITLE4=Por las corrientes del agua
TTITLE5=Escribeme una carta
TTITLE6=De par en par
TTITLE7=Por los caminos del aire
TTITLE8=En un dia de abril
TTITLE9=Pompas de jabon
TTITLE10=La tia tabernera
TTITLE11=Pregon
EXTD=
EXTT0=
EXTT1=
EXTT2=
EXTT3=
EXTT4=
EXTT5=
EXTT6=
EXTT7=
EXTT8=
EXTT9=
EXTT10=
EXTT11=
PLAYORDER=
